
<svg xmlns="http://www.w3.org/2000/svg">
    <defs>
        <svg id="edit" viewBox="0 0 14 14" fill="none" xmlns="http://www.w3.org/2000/svg">
            <path fill-rule="evenodd" clip-rule="evenodd" d="M12.6667 12C13.0349 12 13.3333 12.2985 13.3333 12.6667C13.3333 13.0349 13.0349 13.3333 12.6667 13.3333H0.666667C0.298477 13.3333 0 13.0349 0 12.6667C0 12.2985 0.298477 12 0.666667 12H12.6667Z" fill="white"/>
            <path fill-rule="evenodd" clip-rule="evenodd" d="M10.1956 0.195262L2.86225 7.5286L2.80438 7.59465C2.71577 7.71034 2.66699 7.85266 2.66699 8V10L2.67148 10.0777C2.70999 10.4093 2.99177 10.6667 3.33366 10.6667H5.33366L5.42129 10.6609C5.56576 10.6417 5.70088 10.5756 5.80506 10.4714L13.1384 3.13807L13.1939 3.07527C13.3972 2.81374 13.3787 2.43558 13.1384 2.19526L11.1384 0.195262L11.0756 0.139803C10.8141 -0.0635469 10.4359 -0.0450605 10.1956 0.195262ZM4.00024 8.27616L10.6669 1.6095L11.7241 2.66669L5.05744 9.33335H4.00024V8.27616Z" fill="white"/>
        </svg>
        <svg id="trash" viewBox="0 0 11 14" fill="none" xmlns="http://www.w3.org/2000/svg">
            <path fill-rule="evenodd" clip-rule="evenodd" d="M9.33301 4.66667C9.33301 4.29848 9.03453 4 8.66634 4H1.99967C1.63148 4 1.33301 4.29848 1.33301 4.66667V11.3333C1.33301 12.4379 2.22844 13.3333 3.33301 13.3333H7.33301C8.43758 13.3333 9.33301 12.4379 9.33301 11.3333V4.66667ZM2.6665 5.33337H7.99984V11.3334C7.99984 11.7016 7.70136 12 7.33317 12H3.33317C2.96498 12 2.6665 11.7016 2.6665 11.3334V5.33337Z" fill="white"/>
            <path fill-rule="evenodd" clip-rule="evenodd" d="M3.33333 0.666667C3.33333 0.298477 3.63181 0 4 0H6.66667C7.03486 0 7.33333 0.298477 7.33333 0.666667V1.33333H10C10.3682 1.33333 10.6667 1.63181 10.6667 2C10.6667 2.36819 10.3682 2.66667 10 2.66667H0.666667C0.298477 2.66667 0 2.36819 0 2C0 1.63181 0.298477 1.33333 0.666667 1.33333H3.33333V0.666667Z" fill="white"/>
        </svg>
    </defs>
</svg>