<svg width="26" height="27" viewBox="0 0 26 27" fill="none" xmlns="http://www.w3.org/2000/svg">
<path d="M25.2135 8.91198C23.726 2.94448 18.0168 0.257812 13.0018 0.257812H12.9877C7.98684 0.257812 2.26351 2.93156 0.776011 8.89906C-0.881489 15.5641 3.59518 21.2086 7.64684 24.7607C9.08295 26.0281 11.0032 26.7368 13.0018 26.737C14.9285 26.737 16.8552 26.0782 18.3427 24.7607C22.3943 21.2086 26.871 15.577 25.2135 8.91198ZM13.0018 15.3832C12.4158 15.3832 11.8355 15.278 11.2941 15.0735C10.7527 14.869 10.2608 14.5693 9.84638 14.1915C9.432 13.8137 9.10329 13.3652 8.87903 12.8715C8.65477 12.3779 8.53934 11.8488 8.53934 11.3145C8.53934 10.7802 8.65477 10.2511 8.87903 9.75744C9.10329 9.26379 9.432 8.81526 9.84638 8.43744C10.2608 8.05962 10.7527 7.75992 11.2941 7.55544C11.8355 7.35097 12.4158 7.24573 13.0018 7.24573C14.1854 7.24573 15.3204 7.6744 16.1573 8.43744C16.9942 9.20048 17.4643 10.2354 17.4643 11.3145C17.4643 12.3936 16.9942 13.4285 16.1573 14.1915C15.3204 14.9546 14.1854 15.3832 13.0018 15.3832Z" fill="#3DA2FF"/>
</svg>
